<svg xmlns="http://www.w3.org/2000/svg" viewBox="0 0 480 300" width="480" height="300">
  <style>
    text { font-family: 'Times New Roman', serif; }
    .axis { stroke: #333; stroke-width: 1; }
    .grid { stroke: #ddd; stroke-width: 0.5; }
    .title { font-size: 13px; font-weight: bold; fill: #111; }
    .label { font-size: 10px; fill: #333; }
    .tick { font-size: 9px; fill: #555; }
    .legend { font-size: 9px; fill: #333; }
  </style>
  <rect width="480" height="300" fill="white"/>
  <text x="240.0" y="18" text-anchor="middle" class="title">Fig. 2. Daily Launch Rate by C2 Hypothesis (Baseline Window)</text>
  <line x1="55" y1="30" x2="55" y2="260" class="axis"/>
  <line x1="55" y1="260" x2="460" y2="260" class="axis"/>
  <line x1="55" y1="260.0" x2="460" y2="260.0" class="grid"/>
  <text x="50" y="263.0" text-anchor="end" class="tick">0</text>
  <line x1="55" y1="197.38656987295826" x2="460" y2="197.38656987295826" class="grid"/>
  <text x="50" y="200.38656987295826" text-anchor="end" class="tick">15</text>
  <line x1="55" y1="134.77313974591652" x2="460" y2="134.77313974591652" class="grid"/>
  <text x="50" y="137.77313974591652" text-anchor="end" class="tick">30</text>
  <line x1="55" y1="72.15970961887479" x2="460" y2="72.15970961887479" class="grid"/>
  <text x="50" y="75.15970961887479" text-anchor="end" class="tick">45</text>
  <line x1="55" y1="9.546279491833047" x2="460" y2="9.546279491833047" class="grid"/>
  <text x="50" y="12.546279491833047" text-anchor="end" class="tick">60</text>
  <text x="55.0" y="274" text-anchor="middle" class="tick">0</text>
  <text x="109.0" y="274" text-anchor="middle" class="tick">10</text>
  <text x="163.0" y="274" text-anchor="middle" class="tick">20</text>
  <text x="217.0" y="274" text-anchor="middle" class="tick">30</text>
  <text x="271.0" y="274" text-anchor="middle" class="tick">40</text>
  <text x="325.0" y="274" text-anchor="middle" class="tick">50</text>
  <text x="379.0" y="274" text-anchor="middle" class="tick">60</text>
  <text x="433.0" y="274" text-anchor="middle" class="tick">70</text>
  <text x="240.0" y="295" text-anchor="middle" class="label">Day of Conflict</text>
  <text x="12" y="150.0" text-anchor="middle" class="label" transform="rotate(-90,12,150.0)">Mean Daily Launches</text>
  <polyline points="55.0,33.44373865698731 60.4,68.61161524500909 65.8,107.11887477313974 71.2,199.89110707803994 76.6,209.8049001814882 82.0,223.16243194192378 87.4,225.35390199637024 92.80000000000001,233.18058076225046 98.2,237.66787658802178 103.6,237.45916515426498 109.0,245.2858439201452 114.4,247.37295825771326 119.8,245.18148820326678 125.2,245.494555353902 130.60000000000002,248.72958257713248 136.0,247.79038112522687 141.4,247.89473684210526 146.8,247.26860254083485 152.2,248.41651542649728 157.60000000000002,248.9382940108893 163.0,248.41651542649728 168.4,247.16424682395643 173.8,248.20780399274048 179.2,249.56442831215972 184.6,251.65154264972776 190.0,249.56442831215972 195.4,250.39927404718694 200.79999999999998,250.81669691470054 206.20000000000002,250.92105263157896 211.6,253.32123411978222 217.0,253.8430127041742 222.4,254.67785843920146 227.8,254.46914700544465 233.2,255.30399274047187 238.6,255.19963702359345 244.0,255.30399274047187 249.4,255.30399274047187 254.8,255.8257713248639 260.20000000000005,256.2431941923775 265.6,257.8085299455535 271.0,258.43466424682396 276.4,258.33030852994557 281.8,258.12159709618874 287.20000000000005,258.53901996370234 292.6,259.2695099818512 298.0,258.43466424682396 303.4,259.1651542649728 308.8,259.0607985480944 314.2,259.2695099818512 319.6,259.0607985480944 325.0,259.2695099818512 330.40000000000003,259.79128856624317 335.8,259.2695099818512 341.2,259.79128856624317 346.59999999999997,259.6869328493648 352.0,259.6869328493648 357.40000000000003,259.8956442831216 362.8,259.6869328493648 368.2,259.6869328493648 373.59999999999997,259.79128856624317 379.0,259.79128856624317 384.40000000000003,259.8956442831216 389.8,259.79128856624317 395.2,259.5825771324864 400.6,259.8956442831216 406.0,259.6869328493648 411.4,259.5825771324864 416.8,259.8956442831216 422.2,259.6869328493648 427.6,259.6869328493648 433.0,259.79128856624317 438.4,259.37386569872956 443.8,259.8956442831216 449.20000000000005,259.478221415608 454.6,259.6869328493648" fill="none" stroke="#2563eb" stroke-width="1.8"/>
  <polyline points="55.0,30.0 60.4,78.00362976406532 65.8,105.13611615245009 71.2,199.3693284936479 76.6,209.9092558983666 82.0,212.10072595281306 87.4,224.519056261343 92.80000000000001,235.0589836660617 98.2,238.7114337568058 103.6,238.18965517241378 109.0,242.57259528130672 114.4,244.97277676950998 119.8,247.37295825771326 125.2,245.39019963702358 130.60000000000002,247.58166969147004 136.0,247.58166969147004 141.4,250.29491833030852 146.8,247.99909255898368 152.2,247.58166969147004 157.60000000000002,249.56442831215972 163.0,249.6687840290381 168.4,247.99909255898368 173.8,251.02540834845735 179.2,250.50362976406532 184.6,250.92105263157896 190.0,249.35571687840292 195.4,249.56442831215972 200.79999999999998,249.77313974591652 206.20000000000002,251.86025408348456 211.6,252.17332123411978 217.0,251.86025408348456 222.4,251.44283121597095 227.8,252.3820326678766 233.2,253.73865698729583 238.6,254.67785843920146 244.0,255.30399274047187 249.4,255.30399274047187 254.8,257.2867513611615 260.20000000000005,257.49546279491835 265.6,258.12159709618874 271.0,258.43466424682396 276.4,259.478221415608 281.8,258.95644283121595 287.20000000000005,258.95644283121595 292.6,259.0607985480944 298.0,259.6869328493648 303.4,259.5825771324864 308.8,259.478221415608 314.2,259.0607985480944 319.6,259.6869328493648 325.0,259.478221415608 330.40000000000003,259.79128856624317 335.8,259.6869328493648 341.2,259.478221415608 346.59999999999997,259.8956442831216 352.0,259.79128856624317 357.40000000000003,259.6869328493648 362.8,260.0 368.2,260.0 373.59999999999997,259.6869328493648 379.0,259.8956442831216 384.40000000000003,259.8956442831216 389.8,259.79128856624317 395.2,259.79128856624317 400.6,259.8956442831216 406.0,259.8956442831216 411.4,259.6869328493648 416.8,259.6869328493648 422.2,259.8956442831216 427.6,259.6869328493648 433.0,259.5825771324864 438.4,259.79128856624317 443.8,259.8956442831216 449.20000000000005,259.79128856624317 454.6,259.6869328493648" fill="none" stroke="#dc2626" stroke-width="1.8"/>
  <polyline points="55.0,37.82667876588022 60.4,70.49001814882033 65.8,106.17967332123413 71.2,199.1606170598911 76.6,204.90018148820326 82.0,218.77949183303085 87.4,225.98003629764065 92.80000000000001,236.51996370235935 98.2,239.02450090744102 103.6,236.51996370235935 109.0,247.89473684210526 114.4,246.1206896551724 119.8,246.95553539019963 125.2,247.16424682395643 130.60000000000002,246.32940108892922 136.0,248.6252268602541 141.4,248.20780399274048 146.8,248.20780399274048 152.2,247.47731397459165 157.60000000000002,249.35571687840292 163.0,248.41651542649728 168.4,248.10344827586206 173.8,248.41651542649728 179.2,249.4600725952813 184.6,251.44283121597095 190.0,248.72958257713248 195.4,249.14700544464608 200.79999999999998,251.54718693284937 206.20000000000002,250.50362976406532 211.6,252.9038112522686 217.0,249.8774954627949 222.4,252.9038112522686 227.8,254.05172413793105 233.2,254.99092558983665 238.6,255.51270417422867 244.0,254.78221415607985 249.4,256.5562613430127 254.8,256.7649727767695 260.20000000000005,256.6606170598911 265.6,257.18239564428313 271.0,258.6433756805808 276.4,258.53901996370234 281.8,258.12159709618874 287.20000000000005,258.95644283121595 292.6,258.53901996370234 298.0,259.37386569872956 303.4,259.0607985480944 308.8,259.0607985480944 314.2,259.0607985480944 319.6,259.79128856624317 325.0,259.6869328493648 330.40000000000003,259.478221415608 335.8,259.6869328493648 341.2,259.79128856624317 346.59999999999997,259.478221415608 352.0,259.79128856624317 357.40000000000003,259.6869328493648 362.8,259.79128856624317 368.2,259.478221415608 373.59999999999997,259.79128856624317 379.0,259.8956442831216 384.40000000000003,260.0 389.8,259.79128856624317 395.2,259.8956442831216 400.6,259.79128856624317 406.0,259.8956442831216 411.4,259.6869328493648 416.8,260.0 422.2,259.5825771324864 427.6,259.6869328493648 433.0,260.0 438.4,259.6869328493648 443.8,259.79128856624317 449.20000000000005,259.6869328493648 454.6,259.79128856624317" fill="none" stroke="#16a34a" stroke-width="1.8"/>
  <line x1="330" y1="40" x2="350" y2="40" stroke="#2563eb" stroke-width="2"/>
  <text x="355" y="43" class="legend">H1: Active C2</text>
  <line x1="330" y1="54" x2="350" y2="54" stroke="#dc2626" stroke-width="2"/>
  <text x="355" y="57" class="legend">H2: Pre-Programmed</text>
  <line x1="330" y1="68" x2="350" y2="68" stroke="#16a34a" stroke-width="2"/>
  <text x="355" y="71" class="legend">H3: Mixed</text>
  <text x="257.5" y="245" text-anchor="middle" class="legend" fill="#666">Curves overlap: p > 0.05, d &lt; 0.15</text>
  <line x1="179.2" y1="30" x2="179.2" y2="260" stroke="#f97316" stroke-width="1" stroke-dasharray="4 3"/>
</svg>