<svg xmlns="http://www.w3.org/2000/svg" viewBox="0 0 480 300" width="480" height="300">
  <style>
    text { font-family: 'Times New Roman', serif; }
    .axis { stroke: #333; stroke-width: 1; }
    .grid { stroke: #ddd; stroke-width: 0.5; }
    .title { font-size: 13px; font-weight: bold; fill: #111; }
    .label { font-size: 10px; fill: #333; }
    .tick { font-size: 9px; fill: #555; }
    .legend { font-size: 9px; fill: #333; }
  </style>
  <rect width="480" height="300" fill="white"/>
  <text x="240.0" y="18" text-anchor="middle" class="title">Fig. 3. Emergent Target Ratio by C2 Hypothesis</text>
  <line x1="55" y1="30" x2="55" y2="260" class="axis"/>
  <line x1="55" y1="260" x2="460" y2="260" class="axis"/>
  <line x1="55" y1="260.0" x2="460" y2="260.0" class="grid"/>
  <text x="50" y="263.0" text-anchor="end" class="tick">0.00</text>
  <line x1="55" y1="214.0" x2="460" y2="214.0" class="grid"/>
  <text x="50" y="217.0" text-anchor="end" class="tick">0.03</text>
  <line x1="55" y1="168.0" x2="460" y2="168.0" class="grid"/>
  <text x="50" y="171.0" text-anchor="end" class="tick">0.06</text>
  <line x1="55" y1="122.0" x2="460" y2="122.0" class="grid"/>
  <text x="50" y="125.0" text-anchor="end" class="tick">0.09</text>
  <line x1="55" y1="76.0" x2="460" y2="76.0" class="grid"/>
  <text x="50" y="79.0" text-anchor="end" class="tick">0.12</text>
  <line x1="55" y1="30.0" x2="460" y2="30.0" class="grid"/>
  <text x="50" y="33.0" text-anchor="end" class="tick">0.15</text>
  <text x="55.0" y="274" text-anchor="middle" class="tick">0</text>
  <text x="122.5" y="274" text-anchor="middle" class="tick">5</text>
  <text x="190.0" y="274" text-anchor="middle" class="tick">10</text>
  <text x="257.5" y="274" text-anchor="middle" class="tick">15</text>
  <text x="325.0" y="274" text-anchor="middle" class="tick">20</text>
  <text x="392.5" y="274" text-anchor="middle" class="tick">25</text>
  <text x="460.0" y="274" text-anchor="middle" class="tick">30</text>
  <text x="240.0" y="295" text-anchor="middle" class="label">Day of Conflict</text>
  <text x="12" y="150.0" text-anchor="middle" class="label" transform="rotate(-90,12,150.0)">Emergent Target Ratio</text>
  <polyline points="55.0,260.0 68.5,215.53333333333333 82.0,212.46666666666667 95.5,118.93333333333331 109.0,163.39999999999998 122.5,178.73333333333335 136.0,181.8 149.5,171.06666666666666 163.0,221.66666666666666 176.5,206.33333333333331 190.0,221.66666666666666 203.5,163.39999999999998 217.0,206.33333333333331 230.5,215.53333333333333 244.0,195.6 257.5,247.73333333333332 271.0,186.39999999999998 284.5,198.66666666666666 298.0,192.53333333333333 311.5,212.46666666666667 325.0,210.93333333333334 338.5,233.93333333333334 352.0,189.46666666666664 365.5,250.8 379.0,260.0 392.5,221.66666666666666 406.0,183.33333333333331 419.5,233.93333333333334 433.0,233.93333333333334 446.5,250.8 460.0,240.06666666666666" fill="none" stroke="#2563eb" stroke-width="2"/>
  <polyline points="55.0,260.0 68.5,260.0 82.0,260.0 95.5,260.0 109.0,260.0 122.5,260.0 136.0,260.0 149.5,260.0 163.0,260.0 176.5,260.0 190.0,260.0 203.5,260.0 217.0,260.0 230.5,260.0 244.0,260.0 257.5,260.0 271.0,260.0 284.5,260.0 298.0,260.0 311.5,260.0 325.0,260.0 338.5,260.0 352.0,260.0 365.5,260.0 379.0,260.0 392.5,260.0 406.0,260.0 419.5,260.0 433.0,260.0 446.5,260.0 460.0,260.0" fill="none" stroke="#dc2626" stroke-width="2"/>
  <polyline points="55.0,260.0 68.5,230.86666666666667 82.0,229.33333333333334 95.5,166.46666666666667 109.0,194.06666666666666 122.5,168.0 136.0,207.86666666666667 149.5,203.26666666666665 163.0,243.13333333333333 176.5,198.66666666666666 190.0,250.8 203.5,220.13333333333333 217.0,252.33333333333334 230.5,218.6 244.0,249.26666666666665 257.5,244.66666666666666 271.0,201.73333333333332 284.5,221.66666666666666 298.0,215.53333333333333 311.5,260.0 325.0,230.86666666666667 338.5,212.46666666666667 352.0,253.86666666666667 365.5,201.73333333333332 379.0,260.0 392.5,220.13333333333333 406.0,260.0 419.5,221.66666666666666 433.0,221.66666666666666 446.5,260.0 460.0,227.8" fill="none" stroke="#16a34a" stroke-width="2"/>
  <line x1="320" y1="40" x2="340" y2="40" stroke="#2563eb" stroke-width="2"/>
  <text x="345" y="43" class="legend">H1: Active C2</text>
  <line x1="320" y1="54" x2="340" y2="54" stroke="#dc2626" stroke-width="2"/>
  <text x="345" y="57" class="legend">H2: Pre-Programmed</text>
  <line x1="320" y1="68" x2="340" y2="68" stroke="#16a34a" stroke-width="2"/>
  <text x="345" y="71" class="legend">H3: Mixed</text>
  <text x="257.5" y="255" text-anchor="middle" class="legend" fill="#dc2626">H2 = 0.000 (cannot target emergent)</text>
  <text x="135" y="90" class="legend" fill="#2563eb">d = 0.86, p &lt; 0.001</text>
</svg>