<svg xmlns="http://www.w3.org/2000/svg" viewBox="0 0 520 320" width="520" height="320">
  <style>
    text { font-family: 'Times New Roman', serif; }
    .axis { stroke: #333; stroke-width: 1; }
    .grid { stroke: #ddd; stroke-width: 0.5; }
    .title { font-size: 13px; font-weight: bold; fill: #111; }
    .label { font-size: 10px; fill: #333; }
    .tick { font-size: 9px; fill: #555; }
    .legend { font-size: 9px; fill: #333; }
    .annot { font-size: 9px; fill: #666; font-style: italic; }
  </style>
  <rect width="520" height="320" fill="white"/>
  <text x="260.0" y="20" text-anchor="middle" class="title">Fig. 4. Launcher Survival Under v1 vs v3 Attrition Profiles</text>
  <line x1="60" y1="35" x2="60" y2="275" class="axis"/>
  <line x1="60" y1="275" x2="390" y2="275" class="axis"/>
  <line x1="60" y1="275.0" x2="390" y2="275.0" class="grid"/>
  <text x="55" y="278.0" text-anchor="end" class="tick">0.0</text>
  <line x1="60" y1="227.0" x2="390" y2="227.0" class="grid"/>
  <text x="55" y="230.0" text-anchor="end" class="tick">0.2</text>
  <line x1="60" y1="179.0" x2="390" y2="179.0" class="grid"/>
  <text x="55" y="182.0" text-anchor="end" class="tick">0.4</text>
  <line x1="60" y1="155.0" x2="390" y2="155.0" class="grid"/>
  <text x="55" y="158.0" text-anchor="end" class="tick">0.5</text>
  <line x1="60" y1="131.0" x2="390" y2="131.0" class="grid"/>
  <text x="55" y="134.0" text-anchor="end" class="tick">0.6</text>
  <line x1="60" y1="83.0" x2="390" y2="83.0" class="grid"/>
  <text x="55" y="86.0" text-anchor="end" class="tick">0.8</text>
  <line x1="60" y1="35.0" x2="390" y2="35.0" class="grid"/>
  <text x="55" y="38.0" text-anchor="end" class="tick">1.0</text>
  <text x="60.0" y="289" text-anchor="middle" class="tick">0</text>
  <text x="112.5" y="289" text-anchor="middle" class="tick">7</text>
  <text x="165.0" y="289" text-anchor="middle" class="tick">14</text>
  <text x="217.5" y="289" text-anchor="middle" class="tick">21</text>
  <text x="270.0" y="289" text-anchor="middle" class="tick">28</text>
  <text x="322.5" y="289" text-anchor="middle" class="tick">35</text>
  <text x="352.5" y="289" text-anchor="middle" class="tick">39</text>
  <text x="225.0" y="312" text-anchor="middle" class="label">Day of Conflict</text>
  <text x="14" y="155.0" text-anchor="middle" class="label" transform="rotate(-90,14,155.0)">Fraction Surviving</text>
  <polyline points="60.0,35.0 67.5,75.0 75.0,115.0 82.5,155.0 90.0,170.0 97.5,185.0 105.0,200.0 112.5,215.0 120.0,217.4 127.5,219.8 135.0,222.2 142.5,224.6 150.0,227.0 157.5,227.7 165.0,228.4 172.5,229.2 180.0,229.9 187.5,230.6 195.0,231.3 202.5,232.0 210.0,232.8 217.5,233.5 225.0,234.2 232.5,234.9 240.0,235.6 247.5,236.4 255.0,237.1 262.5,237.8 270.0,238.5 277.5,239.2 285.0,240.0 292.5,240.7 300.0,241.4 307.5,242.1 315.0,242.8 322.5,243.6 330.0,244.3 337.5,245.0 345.0,245.7 352.5,246.4 360.0,247.2 367.5,247.9 375.0,248.6 382.5,249.3 390.0,250.0" fill="none" stroke="#6b7280" stroke-width="2" stroke-dasharray="4 2"/>
  <polyline points="60.0,35.0 67.5,41.9 75.0,48.7 82.5,55.6 90.0,62.4 97.5,69.3 105.0,76.1 112.5,83.0 120.0,87.6 127.5,92.2 135.0,96.8 142.5,101.5 150.0,106.1 157.5,110.7 165.0,115.3 172.5,119.9 180.0,124.5 187.5,129.2 195.0,133.8 202.5,138.4 210.0,143.0 217.5,144.3 225.0,145.5 232.5,146.8 240.0,148.1 247.5,149.3 255.0,150.6 262.5,151.8 270.0,153.1 277.5,154.4 285.0,155.6 292.5,156.9 300.0,158.2 307.5,159.4 315.0,160.7 322.5,161.9 330.0,163.2 337.5,164.5 345.0,165.7 352.5,167.0 360.0,167.5 367.5,168.0 375.0,168.4 382.5,168.9 390.0,169.4" fill="none" stroke="#2563eb" stroke-width="2"/>
  <polyline points="60.0,35.0 67.5,59.0 75.0,83.0 82.5,107.0 90.0,113.9 97.5,120.7 105.0,127.6 112.5,134.4 120.0,141.3 127.5,148.1 135.0,155.0 142.5,155.8 150.0,156.6 157.5,157.4 165.0,158.2 172.5,159.0 180.0,159.8 187.5,160.6 195.0,161.4 202.5,162.2 210.0,163.0 217.5,163.8 225.0,164.6 232.5,165.4 240.0,166.2 247.5,167.0 255.0,167.5 262.5,168.0 270.0,168.5 277.5,169.1 285.0,169.6 292.5,170.1 300.0,170.6 307.5,171.1 315.0,171.6 322.5,172.1 330.0,172.7 337.5,173.2 345.0,173.7 352.5,174.2 360.0,174.7 367.5,175.2 375.0,175.6 382.5,176.1 390.0,176.6" fill="none" stroke="#d97706" stroke-width="2" stroke-dasharray="2 2"/>
  <polyline points="60.0,35.0 67.5,54.2 75.0,73.4 82.5,92.6 90.0,111.8 97.5,131.0 105.0,133.7 112.5,136.5 120.0,139.2 127.5,142.0 135.0,144.7 142.5,147.5 150.0,150.2 157.5,150.4 165.0,150.7 172.5,150.9 180.0,151.2 187.5,151.4 195.0,151.6 202.5,151.9 210.0,152.1 217.5,152.4 225.0,152.6 232.5,152.8 240.0,153.1 247.5,153.3 255.0,153.6 262.5,153.8 270.0,154.0 277.5,154.3 285.0,154.5 292.5,154.8 300.0,155.0 307.5,155.2 315.0,155.5 322.5,155.7 330.0,156.0 337.5,156.2 345.0,156.4 352.5,156.7 360.0,156.9 367.5,157.2 375.0,157.4 382.5,157.6 390.0,157.9" fill="none" stroke="#16a34a" stroke-width="2" stroke-dasharray="6 3"/>
  <circle cx="352.5" cy="155.0" r="4" fill="#111" stroke="white" stroke-width="1.5"/>
  <circle cx="352.5" cy="179.0" r="4" fill="#111" stroke="white" stroke-width="1.5"/>
  <text x="346.5" y="158.0" text-anchor="end" class="tick" fill="#111">CNN ~50%</text>
  <text x="346.5" y="182.0" text-anchor="end" class="tick" fill="#111">AJC ~40%</text>
  <line x1="352.5" y1="35" x2="352.5" y2="275" stroke="#f97316" stroke-width="1" stroke-dasharray="4 3"/>
  <text x="355.5" y="49" class="tick" fill="#f97316">Ceasefire</text>
  <line x1="400" y1="55" x2="418" y2="55" stroke="#6b7280" stroke-width="2" stroke-dasharray="4 2"/>
  <text x="422" y="57" class="legend">v1 (invalidated)</text>
  <text x="422" y="67" class="legend" fill="#666">75% kill by d7</text>
  <line x1="400" y1="77" x2="418" y2="77" stroke="#2563eb" stroke-width="2"/>
  <text x="422" y="79" class="legend">v3 realistic</text>
  <text x="422" y="89" class="legend" fill="#666">~45% at ceasefire</text>
  <line x1="400" y1="99" x2="418" y2="99" stroke="#d97706" stroke-width="2" stroke-dasharray="2 2"/>
  <text x="422" y="101" class="legend">v3 front-loaded</text>
  <text x="422" y="111" class="legend" fill="#666">fast early</text>
  <line x1="400" y1="121" x2="418" y2="121" stroke="#16a34a" stroke-width="2" stroke-dasharray="6 3"/>
  <text x="422" y="123" class="legend">v3 plateau high</text>
  <text x="422" y="133" class="legend" fill="#666">early drop</text>
  <circle cx="409" cy="151" r="3.5" fill="#111"/>
  <text x="422" y="153" class="legend">post-conflict IC</text>
</svg>