<svg xmlns="http://www.w3.org/2000/svg" viewBox="0 0 520 320" width="520" height="320">
  <style>
    text { font-family: 'Times New Roman', serif; }
    .axis { stroke: #333; stroke-width: 1; }
    .grid { stroke: #ddd; stroke-width: 0.5; }
    .title { font-size: 13px; font-weight: bold; fill: #111; }
    .label { font-size: 10px; fill: #333; }
    .tick { font-size: 9px; fill: #555; }
    .legend { font-size: 9px; fill: #333; }
    .annot { font-size: 9px; fill: #666; font-style: italic; }
  </style>
  <rect width="520" height="320" fill="white"/>
  <text x="260.0" y="20" text-anchor="middle" class="title">Fig. 5. Launch Rate Under v3 Realistic Attrition + Coordinated Rationing</text>
  <line x1="60" y1="35" x2="60" y2="275" class="axis"/>
  <line x1="60" y1="275" x2="390" y2="275" class="axis"/>
  <line x1="60" y1="275.0" x2="390" y2="275.0" class="grid"/>
  <text x="55" y="278.0" text-anchor="end" class="tick">0</text>
  <line x1="60" y1="238.5" x2="390" y2="238.5" class="grid"/>
  <text x="55" y="241.5" text-anchor="end" class="tick">10</text>
  <line x1="60" y1="202.0" x2="390" y2="202.0" class="grid"/>
  <text x="55" y="205.0" text-anchor="end" class="tick">20</text>
  <line x1="60" y1="165.5" x2="390" y2="165.5" class="grid"/>
  <text x="55" y="168.5" text-anchor="end" class="tick">30</text>
  <line x1="60" y1="128.9" x2="390" y2="128.9" class="grid"/>
  <text x="55" y="131.9" text-anchor="end" class="tick">40</text>
  <line x1="60" y1="92.4" x2="390" y2="92.4" class="grid"/>
  <text x="55" y="95.4" text-anchor="end" class="tick">50</text>
  <line x1="60" y1="55.9" x2="390" y2="55.9" class="grid"/>
  <text x="55" y="58.9" text-anchor="end" class="tick">60</text>
  <text x="60.0" y="289" text-anchor="middle" class="tick">0</text>
  <text x="119.2" y="289" text-anchor="middle" class="tick">7</text>
  <text x="178.5" y="289" text-anchor="middle" class="tick">14</text>
  <text x="237.7" y="289" text-anchor="middle" class="tick">21</text>
  <text x="296.9" y="289" text-anchor="middle" class="tick">28</text>
  <text x="356.2" y="289" text-anchor="middle" class="tick">35</text>
  <text x="390.0" y="289" text-anchor="middle" class="tick">39</text>
  <text x="225.0" y="312" text-anchor="middle" class="label">Day of Conflict</text>
  <text x="14" y="155.0" text-anchor="middle" class="label" transform="rotate(-90,14,155.0)">Mean Daily Launches</text>
  <polygon points="60.0,56.8 68.5,71.3 76.9,74.8 85.4,105.3 93.8,117.1 102.3,135.7 110.8,144.9 119.2,149.1 127.7,168.2 136.2,169.2 144.6,168.6 153.1,179.4 161.5,179.9 170.0,183.0 178.5,191.3 186.9,196.4 195.4,194.7 203.8,201.9 212.3,206.7 220.8,207.6 229.2,211.6 237.7,211.8 246.2,216.8 254.6,212.7 263.1,218.8 271.5,219.2 280.0,217.8 288.5,224.7 296.9,230.4 305.4,228.7 313.8,231.9 322.3,236.3 330.8,240.4 339.2,243.1 347.7,249.7 356.2,248.1 364.6,253.2 373.1,252.5 381.5,257.2 390.0,256.8 390.0,270.2 381.5,269.4 373.1,268.1 364.6,266.0 356.2,262.9 347.7,262.0 339.2,260.4 330.8,257.8 322.3,256.3 313.8,253.6 305.4,250.4 296.9,248.6 288.5,248.9 280.0,241.2 271.5,243.8 263.1,235.8 254.6,240.5 246.2,238.7 237.7,238.0 229.2,238.2 220.8,233.3 212.3,230.0 203.8,224.4 195.4,220.6 186.9,220.8 178.5,216.9 170.0,211.0 161.5,208.7 153.1,203.4 144.6,201.1 136.2,201.2 127.7,196.7 119.2,188.6 110.8,177.5 102.3,169.7 93.8,153.2 85.4,142.2 76.9,115.7 68.5,108.6 60.0,98.8" fill="#2563eb" fill-opacity="0.12" stroke="none"/>
  <polygon points="60.0,62.2 68.5,67.7 76.9,78.6 85.4,101.3 93.8,111.2 102.3,135.6 110.8,145.6 119.2,154.7 127.7,161.3 136.2,167.7 144.6,165.8 153.1,179.4 161.5,182.9 170.0,185.8 178.5,189.1 186.9,191.1 195.4,196.8 203.8,199.8 212.3,205.5 220.8,209.5 229.2,207.6 237.7,209.8 246.2,217.1 254.6,216.6 263.1,216.6 271.5,216.5 280.0,221.5 288.5,224.5 296.9,229.6 305.4,226.1 313.8,232.3 322.3,233.1 330.8,241.7 339.2,242.9 347.7,246.3 356.2,248.9 364.6,251.2 373.1,254.3 381.5,256.4 390.0,257.4 390.0,269.4 381.5,270.2 373.1,268.1 364.6,265.4 356.2,263.5 347.7,260.1 339.2,259.6 330.8,258.4 322.3,255.7 313.8,250.7 305.4,249.6 296.9,250.6 288.5,248.1 280.0,242.5 271.5,239.4 263.1,237.7 254.6,236.0 246.2,239.1 237.7,235.4 229.2,235.0 220.8,232.7 212.3,229.4 203.8,225.0 195.4,223.1 186.9,220.9 178.5,216.9 170.0,211.4 161.5,211.0 153.1,208.5 144.6,202.3 136.2,196.7 127.7,193.9 119.2,188.9 110.8,178.4 102.3,170.1 93.8,149.6 85.4,141.7 76.9,124.9 68.5,103.3 60.0,103.2" fill="#dc2626" fill-opacity="0.12" stroke="none"/>
  <polygon points="60.0,61.9 68.5,66.4 76.9,72.1 85.4,99.1 93.8,111.9 102.3,136.3 110.8,141.9 119.2,154.1 127.7,165.6 136.2,172.1 144.6,168.0 153.1,172.1 161.5,181.6 170.0,181.2 178.5,188.7 186.9,187.5 195.4,198.1 203.8,200.2 212.3,200.9 220.8,209.0 229.2,212.4 237.7,208.7 246.2,217.3 254.6,214.1 263.1,215.7 271.5,217.6 280.0,220.9 288.5,222.5 296.9,228.3 305.4,230.7 313.8,233.9 322.3,235.5 330.8,241.2 339.2,242.2 347.7,243.5 356.2,247.1 364.6,251.7 373.1,253.2 381.5,257.8 390.0,257.0 390.0,271.5 381.5,270.0 373.1,267.9 364.6,267.0 356.2,262.9 347.7,258.1 339.2,261.3 330.8,259.6 322.3,254.5 313.8,254.2 305.4,249.9 296.9,249.4 288.5,244.0 280.0,244.1 271.5,239.7 263.1,236.9 254.6,239.6 246.2,236.3 237.7,235.8 229.2,236.5 220.8,233.6 212.3,229.0 203.8,229.5 195.4,224.8 186.9,216.1 178.5,216.2 170.0,213.2 161.5,208.9 153.1,208.7 144.6,200.9 136.2,200.8 127.7,197.3 119.2,186.5 110.8,178.1 102.3,167.6 93.8,153.0 85.4,143.5 76.9,112.4 68.5,110.2 60.0,100.2" fill="#16a34a" fill-opacity="0.12" stroke="none"/>
  <polyline points="60.0,77.8 68.5,90.0 76.9,95.2 85.4,123.8 93.8,135.2 102.3,152.7 110.8,161.2 119.2,168.8 127.7,182.5 136.2,185.2 144.6,184.8 153.1,191.4 161.5,194.3 170.0,197.0 178.5,204.1 186.9,208.6 195.4,207.7 203.8,213.1 212.3,218.3 220.8,220.4 229.2,224.9 237.7,224.9 246.2,227.8 254.6,226.6 263.1,227.3 271.5,231.5 280.0,229.5 288.5,236.8 296.9,239.5 305.4,239.6 313.8,242.7 322.3,246.3 330.8,249.1 339.2,251.8 347.7,255.9 356.2,255.5 364.6,259.6 373.1,260.3 381.5,263.3 390.0,263.5" fill="none" stroke="#2563eb" stroke-width="2.0"/>
  <polyline points="60.0,82.7 68.5,85.5 76.9,101.8 85.4,121.5 93.8,130.4 102.3,152.8 110.8,162.0 119.2,171.8 127.7,177.6 136.2,182.2 144.6,184.1 153.1,193.9 161.5,196.9 170.0,198.6 178.5,203.0 186.9,206.0 195.4,209.9 203.8,212.4 212.3,217.5 220.8,221.1 229.2,221.3 237.7,222.6 246.2,228.1 254.6,226.3 263.1,227.2 271.5,228.0 280.0,232.0 288.5,236.3 296.9,240.1 305.4,237.8 313.8,241.5 322.3,244.4 330.8,250.0 339.2,251.3 347.7,253.2 356.2,256.2 364.6,258.3 373.1,261.2 381.5,263.3 390.0,263.4" fill="none" stroke="#dc2626" stroke-width="2.0"/>
  <polyline points="60.0,81.0 68.5,88.3 76.9,92.3 85.4,121.3 93.8,132.5 102.3,152.0 110.8,160.0 119.2,170.3 127.7,181.5 136.2,186.4 144.6,184.4 153.1,190.4 161.5,195.3 170.0,197.2 178.5,202.4 186.9,201.8 195.4,211.5 203.8,214.8 212.3,215.0 220.8,221.3 229.2,224.5 237.7,222.2 246.2,226.8 254.6,226.9 263.1,226.3 271.5,228.6 280.0,232.5 288.5,233.2 296.9,238.9 305.4,240.3 313.8,244.0 322.3,245.0 330.8,250.4 339.2,251.8 347.7,250.8 356.2,255.0 364.6,259.4 373.1,260.5 381.5,263.9 390.0,264.3" fill="none" stroke="#16a34a" stroke-width="2.0"/>
  <line x1="400" y1="55" x2="418" y2="55" stroke="#2563eb" stroke-width="2"/>
  <text x="422" y="57" class="legend">H1: Active C2</text>
  <line x1="400" y1="73" x2="418" y2="73" stroke="#dc2626" stroke-width="2"/>
  <text x="422" y="75" class="legend">H2: Pre-Programmed</text>
  <line x1="400" y1="91" x2="418" y2="91" stroke="#16a34a" stroke-width="2"/>
  <text x="422" y="93" class="legend">H3: Mixed</text>
  <text x="400" y="124" class="annot">All phases:</text>
  <text x="400" y="136" class="annot">p &gt; 0.05</text>
  <text x="400" y="148" class="annot">r &lt; 0.07</text>
  <text x="400" y="168" class="annot">N=50 seeds</text>
  <text x="400" y="180" class="annot">per curve</text>
  <line x1="390.0" y1="35" x2="390.0" y2="275" stroke="#f97316" stroke-width="1" stroke-dasharray="4 3"/>
  <text x="387.0" y="49" text-anchor="end" class="tick" fill="#f97316">Ceasefire</text>
</svg>